<svg width="741" height="982" viewBox="0 0 741 982" fill="none" xmlns="http://www.w3.org/2000/svg">
<path d="M739.898 530.8C738.07 486.834 705.985 450.647 654.201 409.887C610.65 374.62 488.74 274.782 488.74 274.782C522.653 247.766 530.45 238.608 556.566 217.992C635.858 154.789 625.325 94.3322 617.527 71.4419C602.405 28.8551 558.406 0 507.991 0H298.531H216.03H-55.7594C-135.972 0 -203.798 45.3331 -228.546 115.408C-255.134 191.436 -224.877 274.323 -147.425 336.618C-113.052 364.094 -51.183 413.553 12.9869 464.851C-9.93266 471.263 -33.3 483.168 -54.8392 503.784C-85.096 532.639 -100.678 572.02 -98.8378 615.079C-96.5496 669.124 -67.213 721.789 -15.8771 762.549L257.28 981.013L678.029 643.934C720.647 609.127 741.738 571.113 739.898 530.813V530.8ZM298.531 82.4273H507.991C523.113 82.4273 536.407 89.2993 539.616 98.4579C543.284 108.076 535.947 128.68 505.242 153.422C448.87 198.308 359.952 269.75 298.543 318.749V82.4273H298.531ZM-96.0895 271.576C-145.125 232.183 -165.756 183.644 -151.082 141.964C-138.248 105.33 -101.126 81.9675 -56.2196 81.9675H215.57V520.262C125.284 448.361 -32.3797 322.415 -96.0895 271.576ZM35.9066 697.047C3.82159 671.398 -14.9693 639.796 -16.3372 610.481C-17.2575 591.704 -10.8405 574.754 2.45363 562.389C49.6608 518.423 97.7882 530.788 147.284 570.628C164.234 583.913 198.159 610.929 216.03 625.592V841.297L35.9066 697.034V697.047ZM622.104 582.546L298.07 841.31V424.091C309.984 414.473 343.897 390.65 365.436 373.253C401.178 344.398 442.901 342.111 477.721 370.047C529.965 411.726 568.007 446.521 608.349 479.502C636.766 502.865 652.808 522.089 653.256 537.66C654.176 554.61 634.465 572.927 622.091 582.546H622.104Z" fill="#EBEFF2"/>
</svg>
