<svg width="124" height="51" viewBox="0 0 124 51" fill="none" xmlns="http://www.w3.org/2000/svg">
<path d="M63.0464 1.86914C65.9928 1.86914 67.9923 2.92159 67.9923 5.21127C67.9923 6.36935 67.019 7.5536 66.3086 8.18514C67.9658 8.94847 68.8607 10.1851 68.8607 11.7114C68.8607 14.2902 67.2822 16.1851 63.5992 16.1851H59.5481V4.15914L59.2588 1.97509L63.0467 1.86978V1.86946L63.0464 1.86914ZM62.3098 7.57977C63.9671 7.57977 64.4669 7.68508 64.7301 7.71156C65.0721 7.2115 65.4141 6.42201 65.4141 5.65867C65.4141 4.36912 64.7301 3.92203 63.1781 3.92203C62.915 3.92203 62.6256 3.9482 62.3098 3.97468V7.57977ZM62.3098 14.1319H63.6254C65.1774 14.1319 66.0454 13.2636 66.0454 11.8164C66.0454 10.5268 65.23 9.63234 63.099 9.63234H62.3098V14.1322V14.1319Z" fill="#F1ECDC"/>
<path d="M77.9623 8.26306C77.9623 8.26306 77.3571 7.68418 76.5414 7.68418C75.4367 7.68418 74.1211 9.05256 74.1211 10.7104V14.3681L74.3581 16.2104H71.4908V7.65769L71.2012 5.49981L74.1475 5.1842V7.13146C74.1475 7.13146 75.1996 5.15771 77.0413 5.15771C77.6984 5.15771 78.3042 5.42099 78.8038 5.94721L77.9619 8.26306H77.9623Z" fill="#F1ECDC"/>
<path d="M83.0651 14.3686L83.3021 16.2105H80.4352V7.60548L80.1455 5.44761L83.0922 5.132V14.3689H83.0654L83.0651 14.3686ZM81.7233 0.815918C82.4861 0.815918 83.1439 1.47362 83.1439 2.31609C83.1439 3.10559 82.4861 3.73713 81.7233 3.73713C80.9076 3.73713 80.2237 3.10559 80.2237 2.31609C80.2237 1.47362 80.9076 0.815918 81.7233 0.815918Z" fill="#F1ECDC"/>
<path d="M93.536 8.47396C92.7464 7.50033 91.694 7.15824 90.9312 7.15824C89.0899 7.15824 88.3001 8.89488 88.3001 10.816C88.3001 12.6056 89.1161 14.3161 90.8521 14.3161C92.6935 14.3161 94.3507 12.6056 94.3507 12.6056L94.7453 14.8158C94.7453 14.8158 93.141 16.4736 90.3522 16.4736C87.1692 16.4736 85.6172 13.7369 85.6172 11.0001C85.6172 7.89476 87.4585 5.13184 90.9048 5.13184C93.5088 5.13184 94.7983 6.55287 94.7983 6.55287L93.5356 8.47396H93.536Z" fill="#F1ECDC"/>
<path d="M99.5595 10.3155L102.48 6.60543L102.98 5.44735H106.531L102.217 10.3155L106.742 16.1844H103.453L99.5595 10.7894V14.3421L99.7962 16.1844H96.929V2.47349L96.6396 0.315608L99.5863 0V10.3155H99.5595Z" fill="#F1ECDC"/>
<path d="M79.4093 20.9214V26.8161C79.4093 26.8161 80.4355 26.0266 81.7502 26.0266C84.0132 26.0266 86.2495 27.8424 86.2495 31.4737C86.2495 34.6582 83.9606 37.3684 80.6196 37.3684C78.8306 37.3684 77.2263 36.4998 76.7522 35.5262V23.3952L76.4629 21.2373L79.4089 20.9217V20.9214H79.4093ZM79.4093 34.8423C79.8039 35.2106 80.3567 35.4477 80.9874 35.4477C82.3292 35.4477 83.4345 33.7898 83.4345 31.6581C83.4345 29.5264 82.3292 28.0527 80.9874 28.0527C80.1197 28.0527 79.4093 28.5528 79.4093 28.5528V34.8423Z" fill="#F1ECDC"/>
<path d="M95.1937 29.1579C95.1937 29.1579 94.5882 28.5787 93.7725 28.5787C92.6678 28.5787 91.3525 29.9474 91.3525 31.6052V35.2629L91.5895 37.1052H88.7216V28.5263L88.4326 26.3685L91.3793 26.0529V28.0001C91.3793 28.0001 92.4308 26.0264 94.273 26.0264C94.9299 26.0264 95.5357 26.2896 96.0352 26.8159L95.1934 29.1582L95.1937 29.1579Z" fill="#F1ECDC"/>
<path d="M100.324 35.2638L100.56 37.106H97.693V28.5007L97.4033 26.3428L100.35 26.0272V35.2641H100.324L100.324 35.2638ZM98.9553 21.7114C99.7181 21.7114 100.376 22.3694 100.376 23.2116C100.376 24.0011 99.7181 24.633 98.9553 24.633C98.1396 24.633 97.4556 24.0011 97.4556 23.2116C97.4818 22.3694 98.1654 21.7114 98.9553 21.7114Z" fill="#F1ECDC"/>
<path d="M110.767 29.3688C109.978 28.3952 108.925 28.0528 108.163 28.0528C106.321 28.0528 105.532 29.7897 105.532 31.7108C105.532 33.5001 106.348 35.2106 108.084 35.2106C109.925 35.2106 111.582 33.5001 111.582 33.5001L111.977 35.7107C111.977 35.7107 110.372 37.3685 107.584 37.3685C104.401 37.3685 102.849 34.6314 102.849 31.8946C102.849 28.7893 104.69 26.0264 108.136 26.0264C110.74 26.0264 112.03 27.4477 112.03 27.4477L110.767 29.3688H110.767Z" fill="#F1ECDC"/>
<path d="M116.817 31.1845L119.737 27.4738L120.237 26.316H123.789L119.475 31.1845L123.999 37.0531H120.711L116.817 31.658V35.2108L117.054 37.0531H114.187V23.3428L113.897 21.1846L116.844 20.8687V31.1845H116.817Z" fill="#F1ECDC"/>
<path d="M60.4684 26.6314H62.5729L62.126 27.9471H60.4423V31.7105C60.4423 32.2106 60.7055 32.3685 61.0474 32.3685C61.5735 32.3685 62.3627 31.9738 62.6782 31.7105L62.8626 33.263C62.8626 33.263 62.0731 33.9999 60.5214 33.9999C59.3111 33.9999 58.7062 33.3683 58.7062 31.7105V27.9736H57.8379V26.6579H58.7062V25.3683L60.6002 25.1577L60.4688 26.6314H60.4684Z" fill="#DA5F2F"/>
<path d="M66.6246 33.9736C64.4675 33.9736 63.3359 32.0787 63.3359 30.2894C63.3359 28.1838 64.6777 26.3945 67.098 26.3945C68.9658 26.3945 70.3602 27.5261 70.3602 30.0261C70.3602 32.1578 68.992 33.9736 66.6246 33.9736ZM66.8351 32.7108C67.8611 32.7108 68.4659 31.6054 68.4659 30.1844C68.4659 28.7633 67.8611 27.6844 66.8351 27.6844C65.8092 27.6844 65.2044 28.7895 65.2044 30.1844C65.2044 31.6054 65.8357 32.7108 66.8351 32.7108Z" fill="#DA5F2F"/>
<path d="M70.3596 35.7109L70.0173 37.027H58.2324V35.7109H70.3596Z" fill="#DA5F2F"/>
<path d="M26.7956 5.36816H38.8174C39.6855 5.36816 40.4482 5.76291 40.6326 6.28914C40.8431 6.84185 40.422 8.02578 38.6595 9.44714C35.4235 12.0263 30.3203 16.1311 26.7949 18.9473V5.36816H26.7952H26.7956Z" fill="#6C5D2D"/>
<path d="M4.1455 16.237C1.33056 13.9738 0.14704 11.1841 0.988586 8.7894C1.72518 6.68418 3.85584 5.34229 6.43408 5.34229H22.034V30.5262C16.8516 26.3949 7.80199 19.1579 4.1455 16.237Z" fill="#DA5F2F"/>
<path d="M11.7217 40.6847C9.88008 39.2107 8.80183 37.3949 8.72272 35.7109C8.67008 34.6319 9.03822 33.658 9.80129 32.9476C12.511 30.4212 15.2729 31.1319 18.114 33.4212C19.0873 34.1845 21.0339 35.7367 22.0602 36.5792V48.9741L11.7217 40.6847Z" fill="#6C5D2D"/>
<path d="M45.3684 34.1051L26.7695 48.9738V25C27.4535 24.4473 29.4004 23.0786 30.6369 22.0788C32.6888 20.421 35.0826 20.2895 37.0818 21.8947C40.0808 24.2893 42.2645 26.2892 44.5795 28.1842C46.2103 29.5264 47.1313 30.6315 47.1574 31.5263C47.2101 32.4999 46.0792 33.5527 45.3687 34.1054H45.3684V34.1051Z" fill="#0EBAB9"/>
<path d="M62.1514 48.8259V50.4675H61.6605L61.5654 49.3754H59.2647L59.1697 50.4675H58.6787V48.8259H58.8988C59.0405 48.6402 59.1432 48.4251 59.2063 48.181C59.2698 47.9368 59.326 47.5485 59.3748 47.0159L59.631 44.3263H61.8066V48.8262H62.1511L62.1514 48.8259ZM61.1475 44.8759H60.2246L60.0195 47.0449C59.9854 47.4116 59.9439 47.7023 59.8948 47.9171C59.8508 48.1321 59.7949 48.3054 59.7263 48.4375C59.6625 48.5693 59.5726 48.6989 59.4552 48.8259H61.1472V44.8759H61.1475ZM66.3337 49.3757H65.6743V46.8911C65.6743 46.2806 65.7039 45.6768 65.7623 45.0811L64.2094 49.3754H63.3666V44.326H64.0263V46.8177C64.0263 47.4531 63.9966 48.0587 63.9382 48.6354L65.4912 44.326H66.3337V49.3754V49.3757ZM68.7339 49.4638C68.1724 49.4638 67.7182 49.2363 67.3714 48.7822L67.7453 48.4305C67.8917 48.5869 68.0381 48.704 68.1846 48.7822C68.3313 48.8604 68.4972 48.8993 68.6828 48.8993C68.9514 48.8993 69.1614 48.8138 69.3126 48.6431C69.4641 48.4669 69.54 48.225 69.54 47.9174C69.54 47.6145 69.4667 47.3825 69.3199 47.2211C69.1735 47.0599 68.9537 46.9792 68.6605 46.9792H68.2576L68.3383 46.4296H68.6682C68.9074 46.4296 69.0931 46.3563 69.2252 46.2098C69.3569 46.0585 69.4229 45.8482 69.4229 45.5795C69.4229 45.345 69.3668 45.1544 69.2545 45.008C69.147 44.8612 68.9811 44.7878 68.7565 44.7878C68.5903 44.7878 68.434 44.8245 68.2876 44.8976C68.1408 44.9662 67.9919 45.0737 67.8407 45.2202L67.4891 44.8612C67.87 44.4508 68.3071 44.2456 68.8006 44.2456C69.2108 44.2456 69.5308 44.3678 69.7601 44.6123C69.9946 44.8564 70.1117 45.1643 70.1117 45.5355C70.1117 45.8431 70.0335 46.0901 69.8772 46.2755C69.726 46.4612 69.5107 46.593 69.2325 46.6712C69.5403 46.72 69.7869 46.8493 69.9726 47.0596C70.1583 47.2648 70.2508 47.5529 70.2508 47.9244C70.2508 48.2272 70.1851 48.4959 70.053 48.7305C69.9212 48.9599 69.7404 49.1412 69.511 49.2727C69.2816 49.3997 69.0226 49.4635 68.7345 49.4635L68.7339 49.4638ZM73.7213 49.3757L73.4208 48.0932H71.9119L71.6117 49.3757H70.9523L72.2634 44.3263H73.0912L74.4024 49.3757H73.7213ZM72.0363 47.5581H73.2964L72.6663 44.8832L72.0363 47.5581ZM78.4267 49.3757H77.7673V46.8911C77.7673 46.2806 77.7969 45.6768 77.8553 45.0811L76.3027 49.3754H75.4602V44.326H76.1196V46.8177C76.1196 47.4531 76.0902 48.0587 76.0315 48.6354L77.5842 44.326H78.4267V49.3754V49.3757ZM76.9401 43.8132C76.681 43.8132 76.4689 43.7398 76.3027 43.5933C76.1365 43.4465 76.0414 43.2417 76.0169 42.9774L76.4124 42.8823C76.4514 43.0387 76.5126 43.151 76.5959 43.2193C76.6836 43.2831 76.7984 43.3147 76.9401 43.3147C77.0817 43.3147 77.1962 43.2806 77.2843 43.212C77.3771 43.1437 77.4428 43.0339 77.4818 42.8823L77.877 42.9774C77.8528 43.2413 77.7551 43.4465 77.5842 43.5933C77.418 43.7398 77.2036 43.8132 76.9401 43.8132ZM82.2704 49.3757V47.0015H80.6441V49.3757H79.9774V44.3263H80.6441V46.4517H82.2704V44.3263H82.9371V49.3757H82.2704ZM89.4468 49.3757H88.7875V46.8911C88.7875 46.2806 88.8168 45.6768 88.8752 45.0811L87.3222 49.3754H86.4797V44.326H87.1391V46.8177C87.1391 47.4531 87.1098 48.0587 87.0511 48.6354L88.604 44.326H89.4468V49.3754V49.3757ZM93.971 44.326C94.5622 44.326 95.0091 44.4581 95.3118 44.7217C95.6194 44.9856 95.7734 45.374 95.7734 45.8868C95.7734 46.4341 95.6171 46.8423 95.3045 47.1106C94.997 47.3746 94.5571 47.5064 93.986 47.5064H93.6562V49.3751H92.9894V44.3257H93.971V44.326ZM93.9857 46.9788C94.3618 46.9788 94.6378 46.9007 94.8135 46.7443C94.9893 46.5831 95.0774 46.2994 95.0774 45.8942C95.0774 45.5275 94.9868 45.2639 94.8062 45.1028C94.6301 44.9365 94.3567 44.8535 93.9857 44.8535H93.6559V46.9788H93.9857ZM99.2289 44.326L99.1556 44.8609H97.5803V46.5391H98.9505V47.0743H97.5803V48.8403H99.258V49.3754H96.9136V44.326H99.2286H99.2289ZM104.412 49.3757H103.782L103.65 47.0816C103.587 46.1341 103.56 45.4426 103.57 45.008L102.713 48.8039H102.09L101.189 45.0006L101.196 45.3376C101.196 45.7186 101.176 46.3148 101.137 47.1256L101.013 49.3757H100.382L100.727 44.3263H101.592L102.412 48.0272L103.188 44.3263H104.075L104.412 49.3757H104.412ZM107.294 44.2456C107.851 44.2456 108.285 44.4629 108.598 44.8979C108.911 45.3277 109.067 45.9803 109.067 46.8547C109.067 47.7195 108.911 48.3718 108.598 48.8115C108.285 49.2465 107.85 49.4641 107.294 49.4641C106.737 49.4641 106.3 49.2491 105.983 48.8192C105.67 48.3894 105.514 47.7371 105.514 46.8624C105.514 45.9976 105.673 45.3453 105.99 44.9055C106.307 44.4658 106.742 44.2459 107.294 44.2459V44.2456ZM107.294 44.7878C106.943 44.7878 106.674 44.9489 106.488 45.2716C106.307 45.5942 106.217 46.1239 106.217 46.8617C106.217 47.5944 106.31 48.12 106.495 48.4375C106.681 48.7551 106.947 48.914 107.294 48.914C107.646 48.914 107.912 48.7576 108.093 48.4449C108.274 48.1274 108.364 47.597 108.364 46.8544C108.364 46.1166 108.274 45.5891 108.093 45.2716C107.912 44.9489 107.646 44.7878 107.294 44.7878ZM112.688 49.3757V47.0015H111.061V49.3757H110.395V44.3263H111.061V46.4517H112.688V44.3263H113.354V49.3757H112.688ZM117.439 44.326L117.366 44.8832H116.245V49.3757H115.578V44.8832H114.428V44.326H117.439Z" fill="#F1ECDC"/>
<path d="M63.0464 1.86914C65.9928 1.86914 67.9923 2.92159 67.9923 5.21127C67.9923 6.36935 67.019 7.5536 66.3086 8.18514C67.9658 8.94847 68.8607 10.1851 68.8607 11.7114C68.8607 14.2902 67.2822 16.1851 63.5992 16.1851H59.5481V4.15914L59.2588 1.97509L63.0467 1.86978V1.86946L63.0464 1.86914ZM62.3098 7.57977C63.9671 7.57977 64.4669 7.68508 64.7301 7.71156C65.0721 7.2115 65.4141 6.42201 65.4141 5.65867C65.4141 4.36912 64.7301 3.92203 63.1781 3.92203C62.915 3.92203 62.6256 3.9482 62.3098 3.97468V7.57977ZM62.3098 14.1319H63.6254C65.1774 14.1319 66.0454 13.2636 66.0454 11.8164C66.0454 10.5268 65.23 9.63234 63.099 9.63234H62.3098V14.1322V14.1319Z" fill="#F1ECDC"/>
<path d="M77.9623 8.26306C77.9623 8.26306 77.3571 7.68418 76.5414 7.68418C75.4367 7.68418 74.1211 9.05256 74.1211 10.7104V14.3681L74.3581 16.2104H71.4908V7.65769L71.2012 5.49981L74.1475 5.1842V7.13146C74.1475 7.13146 75.1996 5.15771 77.0413 5.15771C77.6984 5.15771 78.3042 5.42099 78.8038 5.94721L77.9619 8.26306H77.9623Z" fill="#F1ECDC"/>
<path d="M83.0651 14.3686L83.3021 16.2105H80.4352V7.60548L80.1455 5.44761L83.0922 5.132V14.3689H83.0654L83.0651 14.3686ZM81.7233 0.815918C82.4861 0.815918 83.1439 1.47362 83.1439 2.31609C83.1439 3.10559 82.4861 3.73713 81.7233 3.73713C80.9076 3.73713 80.2237 3.10559 80.2237 2.31609C80.2237 1.47362 80.9076 0.815918 81.7233 0.815918Z" fill="#F1ECDC"/>
<path d="M93.536 8.47396C92.7464 7.50033 91.694 7.15824 90.9312 7.15824C89.0899 7.15824 88.3001 8.89488 88.3001 10.816C88.3001 12.6056 89.1161 14.3161 90.8521 14.3161C92.6935 14.3161 94.3507 12.6056 94.3507 12.6056L94.7453 14.8158C94.7453 14.8158 93.141 16.4736 90.3522 16.4736C87.1692 16.4736 85.6172 13.7369 85.6172 11.0001C85.6172 7.89476 87.4585 5.13184 90.9048 5.13184C93.5088 5.13184 94.7983 6.55287 94.7983 6.55287L93.5356 8.47396H93.536Z" fill="#F1ECDC"/>
<path d="M99.5595 10.3155L102.48 6.60543L102.98 5.44735H106.531L102.217 10.3155L106.742 16.1844H103.453L99.5595 10.7894V14.3421L99.7962 16.1844H96.929V2.47349L96.6396 0.315608L99.5863 0V10.3155H99.5595Z" fill="#F1ECDC"/>
<path d="M79.4093 20.9214V26.8161C79.4093 26.8161 80.4355 26.0266 81.7502 26.0266C84.0132 26.0266 86.2495 27.8424 86.2495 31.4737C86.2495 34.6582 83.9606 37.3684 80.6196 37.3684C78.8306 37.3684 77.2263 36.4998 76.7522 35.5262V23.3952L76.4629 21.2373L79.4089 20.9217V20.9214H79.4093ZM79.4093 34.8423C79.8039 35.2106 80.3567 35.4477 80.9874 35.4477C82.3292 35.4477 83.4345 33.7898 83.4345 31.6581C83.4345 29.5264 82.3292 28.0527 80.9874 28.0527C80.1197 28.0527 79.4093 28.5528 79.4093 28.5528V34.8423Z" fill="#F1ECDC"/>
<path d="M95.1937 29.1579C95.1937 29.1579 94.5882 28.5787 93.7725 28.5787C92.6678 28.5787 91.3525 29.9474 91.3525 31.6052V35.2629L91.5895 37.1052H88.7216V28.5263L88.4326 26.3685L91.3793 26.0529V28.0001C91.3793 28.0001 92.4308 26.0264 94.273 26.0264C94.9299 26.0264 95.5357 26.2896 96.0352 26.8159L95.1934 29.1582L95.1937 29.1579Z" fill="#F1ECDC"/>
<path d="M100.324 35.2638L100.56 37.106H97.693V28.5007L97.4033 26.3428L100.35 26.0272V35.2641H100.324L100.324 35.2638ZM98.9553 21.7114C99.7181 21.7114 100.376 22.3694 100.376 23.2116C100.376 24.0011 99.7181 24.633 98.9553 24.633C98.1396 24.633 97.4556 24.0011 97.4556 23.2116C97.4818 22.3694 98.1654 21.7114 98.9553 21.7114Z" fill="#F1ECDC"/>
<path d="M110.767 29.3688C109.978 28.3952 108.925 28.0528 108.163 28.0528C106.321 28.0528 105.532 29.7897 105.532 31.7108C105.532 33.5001 106.348 35.2106 108.084 35.2106C109.925 35.2106 111.582 33.5001 111.582 33.5001L111.977 35.7107C111.977 35.7107 110.372 37.3685 107.584 37.3685C104.401 37.3685 102.849 34.6314 102.849 31.8946C102.849 28.7893 104.69 26.0264 108.136 26.0264C110.74 26.0264 112.03 27.4477 112.03 27.4477L110.767 29.3688H110.767Z" fill="#F1ECDC"/>
<path d="M116.817 31.1845L119.737 27.4738L120.237 26.316H123.789L119.475 31.1845L123.999 37.0531H120.711L116.817 31.658V35.2108L117.054 37.0531H114.187V23.3428L113.897 21.1846L116.844 20.8687V31.1845H116.817Z" fill="#F1ECDC"/>
<path d="M60.4684 26.6314H62.5729L62.126 27.9471H60.4423V31.7105C60.4423 32.2106 60.7055 32.3685 61.0474 32.3685C61.5735 32.3685 62.3627 31.9738 62.6782 31.7105L62.8626 33.263C62.8626 33.263 62.0731 33.9999 60.5214 33.9999C59.3111 33.9999 58.7062 33.3683 58.7062 31.7105V27.9736H57.8379V26.6579H58.7062V25.3683L60.6002 25.1577L60.4688 26.6314H60.4684Z" fill="#DA5F2F"/>
<path d="M66.6246 33.9736C64.4675 33.9736 63.3359 32.0787 63.3359 30.2894C63.3359 28.1838 64.6777 26.3945 67.098 26.3945C68.9658 26.3945 70.3602 27.5261 70.3602 30.0261C70.3602 32.1578 68.992 33.9736 66.6246 33.9736ZM66.8351 32.7108C67.8611 32.7108 68.4659 31.6054 68.4659 30.1844C68.4659 28.7633 67.8611 27.6844 66.8351 27.6844C65.8092 27.6844 65.2044 28.7895 65.2044 30.1844C65.2044 31.6054 65.8357 32.7108 66.8351 32.7108Z" fill="#DA5F2F"/>
<path d="M70.3596 35.7109L70.0173 37.027H58.2324V35.7109H70.3596Z" fill="#DA5F2F"/>
<path d="M4.1455 16.237C1.33056 13.9738 0.14704 11.1841 0.988586 8.7894C1.72518 6.68418 3.85584 5.34229 6.43408 5.34229H22.034V30.5262C16.8516 26.3949 7.80199 19.1579 4.1455 16.237Z" fill="#DA5F2F"/>
<path d="M45.3684 34.1051L26.7695 48.9738V25C27.4535 24.4473 29.4004 23.0786 30.6369 22.0788C32.6888 20.421 35.0826 20.2895 37.0818 21.8947C40.0808 24.2893 42.2645 26.2892 44.5795 28.1842C46.2103 29.5264 47.1313 30.6315 47.1574 31.5263C47.2101 32.4999 46.0792 33.5527 45.3687 34.1054H45.3684V34.1051Z" fill="#0EBAB9"/>
</svg>
