<svg width="162" height="71" viewBox="0 0 162 71" fill="none" xmlns="http://www.w3.org/2000/svg">
<g clip-path="url(#clip0_40_272)">
<path d="M69.9323 38.7782C69.8006 35.6319 67.5074 33.0414 63.8034 30.1243C59.8541 26.9074 55.91 23.684 51.9712 20.4541C54.3959 18.5209 54.9539 17.8646 56.8216 16.3898C62.4928 11.8661 61.7379 7.53919 61.181 5.9001C60.1005 2.85217 56.9535 0.787086 53.3479 0.787086H13.0328C7.29674 0.787086 2.44631 4.0328 0.675969 9.04743C-1.22525 14.4881 0.93873 20.4216 6.47798 24.8804L17.9492 34.0577C16.1254 34.5677 14.458 35.5255 13.0988 36.8439C10.9348 38.909 9.82086 41.7287 9.95172 44.8091C10.1161 48.6776 12.2141 52.4467 15.8846 55.3648L35.4193 71L65.5079 46.8752C68.5556 44.3831 70.0634 41.6628 69.9323 38.7782ZM38.3695 6.68617H53.3489C54.4304 6.68617 55.381 7.17911 55.6102 7.83434C55.872 8.52304 55.3475 9.99781 53.1521 11.7677C49.1204 14.98 42.7614 20.094 38.3705 23.6014V6.68719L38.3695 6.68617ZM10.1486 20.2249C6.64137 17.4051 5.16725 13.9312 6.21525 10.9482C7.13342 8.32627 9.78839 6.65473 13.0003 6.65473H32.4366V38.0246C25.9791 32.8781 14.7047 23.8631 10.1486 20.2249ZM19.5887 50.6768C17.2938 48.8409 15.9496 46.579 15.8512 44.4815C15.7862 43.1376 16.2448 41.9255 17.1954 41.04C20.5717 37.8927 24.013 38.7782 27.5537 41.6303C28.765 42.5807 31.1907 44.515 32.469 45.5637V61.0022L19.5887 50.6768ZM61.5087 42.4813L38.337 61.0022V31.1406C39.1892 30.4519 41.614 28.7469 43.154 27.5024C45.7105 25.4373 48.6932 25.273 51.1849 27.2721C54.9214 30.2551 57.6414 32.7462 60.5256 35.1065C62.5577 36.779 63.7051 38.1554 63.7379 39.2701C63.8034 40.4832 62.3933 41.7936 61.5087 42.4823V42.4813ZM83.5359 2.32677C87.2064 2.32677 89.6969 3.63824 89.6969 6.49041C89.6969 7.93273 88.4848 9.4075 87.6004 10.1936C89.6648 11.145 90.7799 12.6857 90.7799 14.5864C90.7799 17.7987 88.8126 20.1589 84.2236 20.1589H79.1764V5.17793L78.8152 2.45761L83.5359 2.32677ZM82.6181 9.43996C84.6825 9.43996 85.3066 9.57181 85.6331 9.60427C86.0592 8.9815 86.4853 7.99764 86.4853 7.04726C86.4853 5.44063 85.6331 4.88379 83.6992 4.88379C83.3714 4.88379 83.0114 4.91624 82.6181 4.94971V9.43996ZM82.6181 17.6019H84.2564C86.1909 17.6019 87.2726 16.5207 87.2726 14.7173C87.2726 13.1117 86.2559 11.997 83.6008 11.997H82.6181V17.6019ZM102.12 10.293C102.12 10.293 101.366 9.57181 100.35 9.57181C98.9738 9.57181 97.3355 11.2758 97.3355 13.3409V17.8981L97.6299 20.1924H94.0577V9.53936L93.6971 6.8515L97.3677 6.45796V8.88311C97.3677 8.88311 98.6788 6.42449 100.973 6.42449C101.792 6.42449 102.546 6.75311 103.169 7.40834L102.12 10.293ZM108.478 17.8981L108.773 20.1924H105.2V9.47343L104.84 6.78557L108.512 6.39203V17.8981H108.478ZM106.807 1.01631C107.756 1.01631 108.577 1.83586 108.577 2.88463C108.577 3.86849 107.756 4.65456 106.807 4.65456C105.79 4.65456 104.938 3.86849 104.938 2.88463C104.938 1.83586 105.79 1.01631 106.807 1.01631ZM121.524 10.5557C120.541 9.34259 119.23 8.91659 118.28 8.91659C115.986 8.91659 115.001 11.0801 115.001 13.4728C115.001 15.7011 116.018 17.8322 118.181 17.8322C120.476 17.8322 122.54 15.7022 122.54 15.7022L123.032 18.4549C123.032 18.4549 121.033 20.52 117.558 20.52C113.592 20.52 111.658 17.112 111.658 13.702C111.658 9.83452 113.953 6.39203 118.247 6.39203C121.491 6.39203 123.097 8.16196 123.097 8.16196L121.524 10.5557ZM129.029 12.85L132.667 8.22789L133.29 6.78557H137.714L132.339 12.85L137.977 20.1599H133.879L129.029 13.4403V17.8656L129.325 20.1599H125.751V3.0814L125.391 0.393543L129.062 0V12.851H129.029V12.85ZM103.924 26.06V33.4025C103.924 33.4025 105.202 32.4186 106.841 32.4186C109.66 32.4186 112.446 34.6805 112.446 39.2042C112.446 43.17 109.594 46.5476 105.431 46.5476C103.202 46.5476 101.203 45.4654 100.612 44.2523V29.1414L100.252 26.4536L103.924 26.06ZM103.924 43.4003C104.46 43.8921 105.163 44.1616 105.89 44.1539C107.562 44.1539 108.938 42.0888 108.938 39.4344C108.938 36.779 107.562 34.9432 105.89 34.9432C104.808 34.9432 103.924 35.5659 103.924 35.5659V43.4003ZM123.59 36.3195C123.59 36.3195 122.836 35.5994 121.82 35.5994C120.444 35.5994 118.805 37.3034 118.805 39.3685V43.9247L119.1 46.219H115.527V35.5335L115.167 32.8456L118.837 32.4521V34.8772C118.837 34.8772 120.149 32.4196 122.443 32.4196C123.262 32.4196 124.016 32.7472 124.639 33.4035L123.59 36.3195ZM129.981 43.9247L130.276 46.219H126.703V35.5L126.343 32.8121L130.014 32.4186V43.9247H129.981ZM128.276 27.0429C129.227 27.0429 130.047 27.8624 130.047 28.9112C130.047 29.8951 129.227 30.6811 128.276 30.6811C127.261 30.6811 126.409 29.8951 126.409 28.9112C126.441 27.8624 127.294 27.0429 128.276 27.0429ZM142.994 36.5822C142.011 35.3692 140.7 34.9432 139.75 34.9432C137.455 34.9432 136.471 37.1066 136.471 39.4993C136.471 41.7287 137.487 43.8597 139.651 43.8597C141.945 43.8597 144.01 41.7287 144.01 41.7287L144.501 44.4825C144.501 44.4825 142.502 46.5466 139.028 46.5466C135.063 46.5466 133.129 43.1386 133.129 39.7286C133.129 35.8611 135.423 32.4196 139.716 32.4196C142.962 32.4196 144.568 34.1895 144.568 34.1895L142.994 36.5822ZM150.531 38.8441L154.169 34.222L154.792 32.7797H159.217L153.841 38.8441L159.479 46.1541H155.383L150.531 39.4334V43.8587L150.826 46.1541H147.254V29.0755L146.893 26.3877L150.564 25.9941V38.8441H150.531Z" fill="#0D2839"/>
<path d="M80.3218 33.1744H82.944L82.3862 34.8134H80.289V39.5005C80.289 40.1233 80.6168 40.32 81.0429 40.32C81.6984 40.32 82.6812 39.8281 83.0751 39.5005L83.3046 41.4347C83.3046 41.4347 82.32 42.3527 80.3873 42.3527C78.8802 42.3527 78.125 41.5656 78.125 39.5005V34.8459H77.0439V33.2068H78.125V31.6012L80.4863 31.3385L80.3218 33.1744ZM87.9912 42.3192C85.3041 42.3192 83.8946 39.959 83.8946 37.7306C83.8946 35.1076 85.5657 32.8782 88.5819 32.8782C90.9091 32.8782 92.6458 34.288 92.6458 37.402C92.6458 40.0574 90.9419 42.3192 87.9912 42.3192ZM88.2541 40.7461C89.5324 40.7461 90.2863 39.3687 90.2863 37.5987C90.2863 35.8287 89.5324 34.4848 88.2541 34.4848C86.9757 34.4848 86.2218 35.8612 86.2218 37.5987C86.2218 39.3687 87.0085 40.7461 88.2541 40.7461ZM92.6451 44.4837L92.219 46.1218H77.535V44.4837H92.6458H92.6451Z" fill="#BE5E33"/>
<path d="M38.3701 6.6897H53.3495C54.431 6.6897 55.3816 7.18163 55.6109 7.83584C55.8726 8.52555 55.3482 10.0003 53.1527 11.7713C49.121 14.9825 42.763 20.0965 38.3711 23.6039V6.6897H38.3701Z" fill="#6C5D2D"/>
<path d="M10.1492 20.2239C6.64201 17.4042 5.16789 13.9303 6.21589 10.9473C7.134 8.32535 9.78904 6.65381 13.001 6.65381H32.4372V38.0236C25.9798 32.8771 14.7054 23.8632 10.1492 20.2239Z" fill="#BE5E33"/>
<path d="M19.5892 50.6773C17.2954 48.8414 15.9511 46.5796 15.8527 44.482C15.7877 43.1381 16.2463 41.926 17.197 41.0406C20.5722 37.8932 24.0145 38.7787 27.5542 41.6299C28.7665 42.5813 31.1922 44.5145 32.4706 45.5643V61.0027L19.5892 50.6773Z" fill="#6C5D2D"/>
<path d="M61.5106 42.4825L38.3379 61.0034V31.1408C39.1901 30.4531 41.6148 28.7481 43.1558 27.5025C45.7125 25.4374 48.6952 25.2731 51.1858 27.2733C54.9223 30.2553 57.6422 32.7474 60.5275 35.1076C62.5596 36.7792 63.7058 38.1556 63.7392 39.2703C63.8042 40.4833 62.3953 41.7948 61.5106 42.4825Z" fill="#68B8B8"/>
<path d="M81.2445 58.3214H80.4427L80.3292 57.7736L80.1174 57.0966L79.0887 57.0738L78.1583 57.0966L77.9314 57.7356L77.8104 58.3214H77.0312L78.7635 53.4376H79.6787L81.2445 58.3214ZM79.9208 56.4576L79.2249 54.2059H79.1719L78.3777 56.4576L79.1417 56.4728L79.9208 56.4576ZM83.7842 53.43C84.2733 53.43 84.649 53.5567 84.9113 53.8103C85.1785 54.0588 85.3122 54.4189 85.3122 54.8905C85.3122 55.4382 85.1432 55.8719 84.8054 56.1914C84.4725 56.5109 84.0136 56.6706 83.4287 56.6706H82.8916V56.7847L82.9294 58.3214H82.1352L82.1881 56.8532L82.1352 53.4376L83.7842 53.43ZM83.6556 56.062C83.933 56.0062 84.1422 55.8871 84.2834 55.7045C84.4297 55.5169 84.5028 55.2684 84.5028 54.959C84.5028 54.6547 84.4246 54.429 84.2683 54.282C84.117 54.1349 83.885 54.0563 83.5724 54.0461L82.9294 54.069L82.8992 56.0468L83.6556 56.062ZM88.3145 55.773L89.9408 58.3214H88.9953L88.7759 57.8877L87.785 56.3891L86.7487 57.9334L86.5445 58.3214H85.7276L87.3312 55.8795L85.7654 53.4376H86.7033L86.9227 53.8636L87.8455 55.2785L88.7835 53.8484L88.9877 53.4376H89.8198L88.3145 55.773ZM90.8895 56.8532L90.8517 53.4604L91.6384 53.4224L91.593 57.1042H91.6535L93.9303 53.4376H94.7548L94.717 56.7847L94.7472 58.3214H93.9606L93.9984 56.8532V54.6547H93.9379L91.661 58.3214H90.8517L90.8895 56.8532ZM98.9618 53.506L98.9164 54.0994L98.0389 54.0537H97.6305L97.5926 56.7847L97.6305 58.3214H96.8438L96.8892 56.8532L96.8514 54.0537H96.4429L95.5503 54.0994L95.4974 54.0309L95.5579 53.4376H98.9164L98.9618 53.506ZM102.649 57.6519L102.695 57.7204L102.642 58.3214H99.7749L99.8279 56.8532L99.7749 53.4376H102.657L102.702 53.506L102.642 54.107L101.492 54.0766L100.569 54.0842L100.546 55.5067L101.424 55.5219L102.226 55.4991L102.279 55.56L102.218 56.1609L101.363 56.1381L100.539 56.1533L100.531 56.7847L100.554 57.6824L101.477 57.69L102.649 57.6519ZM104.572 56.7847L104.602 58.3214H103.823L103.861 56.8532L103.823 53.4376H104.61L104.572 56.7847ZM105.442 55.7349C106.027 56.5261 106.695 57.3324 107.446 58.154L107.439 58.2453C107.217 58.3061 106.967 58.3543 106.69 58.3898L106.592 58.3442C105.825 57.4009 105.174 56.5438 104.64 55.773V55.7197L106.153 53.8788L106.455 53.4376H107.31L105.442 55.7349ZM111.003 53.506L110.957 54.0994L110.08 54.0537H109.671L109.634 56.7847L109.671 58.3214H108.885L108.93 56.8532L108.892 54.0537H108.484L107.591 54.0994L107.538 54.0309L107.599 53.4376H110.957L111.003 53.506ZM115.236 53.4452L113.829 56.8151C113.638 57.2411 113.461 57.5581 113.3 57.766C113.143 57.974 112.957 58.1236 112.74 58.2149C112.528 58.3011 112.236 58.3569 111.863 58.3822L111.794 58.3746C111.739 58.1971 111.694 57.9942 111.658 57.766L111.696 57.69C112.084 57.6443 112.369 57.586 112.551 57.515C112.732 57.4389 112.881 57.3172 112.997 57.1499L111.151 53.4452L111.991 53.4376L112.165 53.9168L113.292 56.3131H113.375L114.321 53.8788L114.465 53.4452H115.236ZM117.72 53.43C118.209 53.43 118.585 53.5567 118.847 53.8103C119.114 54.0588 119.248 54.4189 119.248 54.8905C119.248 55.4382 119.079 55.8719 118.741 56.1914C118.408 56.5109 117.949 56.6706 117.364 56.6706H116.827V56.7847L116.865 58.3214H116.071L116.124 56.8532L116.071 53.4376L117.72 53.43ZM117.591 56.062C117.868 56.0062 118.078 55.8871 118.219 55.7045C118.365 55.5169 118.438 55.2684 118.438 54.959C118.438 54.6547 118.36 54.429 118.204 54.282C118.053 54.1349 117.821 54.0563 117.508 54.0461L116.865 54.069L116.835 56.0468L117.591 56.062ZM123.431 58.3214H122.63L122.516 57.7736L122.304 57.0966L121.276 57.0738L120.345 57.0966L120.118 57.7356L119.997 58.3214H119.218L120.95 53.4376H121.866L123.431 58.3214ZM122.108 56.4576L121.412 54.2059H121.359L120.564 56.4576L121.328 56.4728L122.108 56.4576ZM125.571 56.8532L125.533 53.4604L126.32 53.4224L126.274 57.1042H126.335L128.612 53.4376H129.436L129.398 56.7847L129.428 58.3214H128.642L128.68 56.8532V54.6547H128.619L126.342 58.3214H125.533L125.571 56.8532ZM136.132 57.6747V59.257L135.549 59.3103L135.436 58.3214H132.191L132.085 59.257L131.495 59.3103V57.6747H131.896C132.107 57.5581 132.274 57.3806 132.395 57.1422C132.516 56.9039 132.614 56.5666 132.69 56.1305C132.766 55.6944 132.839 55.0807 132.909 54.2896L132.992 53.4376H135.496L135.466 56.7847L135.481 57.6747H136.132ZM134.747 56.8532L134.717 54.0385H133.628L133.59 54.4265C133.504 55.4002 133.396 56.1305 133.265 56.6173C133.134 57.0991 132.947 57.4516 132.705 57.6747H134.725L134.747 56.8532ZM137.191 56.8532L137.153 53.4604L137.939 53.4224L137.894 57.1042H137.955L140.231 53.4376H141.056L141.018 56.7847L141.048 58.3214H140.262L140.3 56.8532V54.6547H140.239L137.962 58.3214H137.153L137.191 56.8532ZM144.339 55.773C144.999 55.9403 145.33 56.3308 145.33 56.9445C145.33 57.3907 145.161 57.7432 144.823 58.0019C144.485 58.2605 144.026 58.3898 143.446 58.3898C143.184 58.3898 142.934 58.3594 142.697 58.2985C142.46 58.2377 142.259 58.1515 142.092 58.0399L142.236 57.3552L142.304 57.3324C142.46 57.4592 142.637 57.5581 142.834 57.6291C143.035 57.7001 143.237 57.7356 143.439 57.7356C143.766 57.7356 144.031 57.657 144.233 57.4998C144.44 57.3426 144.543 57.1372 144.543 56.8836C144.543 56.6807 144.48 56.5134 144.354 56.3815C144.228 56.2497 144.051 56.1609 143.824 56.1153H142.803L142.743 56.0544L142.796 55.5143L143.771 55.5295C143.933 55.4585 144.061 55.3495 144.157 55.2024C144.258 55.0554 144.309 54.8931 144.309 54.7156C144.309 54.2794 144.026 54.0614 143.461 54.0614C143.068 54.0614 142.662 54.1907 142.244 54.4493L142.153 54.4113L142.221 53.719C142.619 53.4959 143.043 53.3843 143.492 53.3843C143.991 53.3843 144.384 53.4933 144.672 53.7114C144.959 53.9244 145.103 54.2186 145.103 54.5939C145.103 54.8525 145.035 55.0858 144.899 55.2937C144.767 55.5016 144.581 55.6614 144.339 55.773ZM150.054 58.3214H149.252L149.138 57.7736L148.926 57.0966L147.898 57.0738L146.967 57.0966L146.74 57.7356L146.619 58.3214H145.84L147.572 53.4376H148.488L150.054 58.3214ZM148.73 56.4576L148.034 54.2059H147.981L147.187 56.4576L147.951 56.4728L148.73 56.4576ZM150.982 56.8532L150.944 53.4604L151.731 53.4224L151.686 57.1042H151.746L154.023 53.4376H154.847L154.81 56.7847L154.84 58.3214H154.053L154.091 56.8532V54.6547H154.03L151.754 58.3214H150.944L150.982 56.8532ZM154.038 52.3574C153.937 52.5754 153.776 52.7453 153.554 52.867C153.332 52.9887 153.072 53.0496 152.775 53.0496C152.477 53.0496 152.223 52.9913 152.011 52.8746C151.799 52.7529 151.643 52.5805 151.542 52.3574L151.935 52.0835H152.026C152.086 52.2559 152.177 52.3827 152.298 52.4639C152.419 52.5399 152.583 52.578 152.79 52.578C153.002 52.578 153.166 52.5399 153.282 52.4639C153.403 52.3878 153.496 52.261 153.561 52.0835H153.652L154.038 52.3574ZM160.179 56.7847L160.202 58.3214H159.423L159.461 56.8532L159.453 56.1914L158.213 56.1837L157.078 56.1914L157.071 56.7847L157.101 58.3214H156.329L156.36 56.8532L156.329 53.4376H157.108L157.086 55.5371L158.273 55.5524L159.446 55.5371L159.423 53.4376H160.217L160.179 56.7847Z" fill="#0D2839"/>
</g>
<defs>
<clipPath id="clip0_40_272">
<rect width="162" height="71" fill="white"/>
</clipPath>
</defs>
</svg>
